<?xml version="1.0" encoding="UTF-8" standalone="no"?>
<svg xmlns:xlink="http://www.w3.org/1999/xlink" height="19.0px" width="15.25px" xmlns="http://www.w3.org/2000/svg">
  <g transform="matrix(1, 0, 0, 1, 7.65, 9.5)">
    <path d="M2.15 -9.5 L2.95 -8.95 3.25 -8.6 Q3.4 -8.4 3.6 -8.3 L4.65 -7.8 Q5.35 -7.55 5.75 -6.6 L6.3 -5.55 7.1 -4.4 7.55 -3.05 Q7.75 -1.85 7.1 -0.15 L6.4 1.35 Q6.4 0.2 5.8 -0.7 L5.0 -1.65 5.8 -2.2 Q6.25 -2.6 6.3 -2.95 L6.15 -3.85 5.2 -4.55 4.9 -4.6 4.0 -4.45 3.2 -4.35 3.1 -4.4 2.45 -5.4 Q1.9 -6.35 1.45 -6.45 L1.25 -6.45 0.3 -6.1 -0.3 -5.9 -0.7 -5.85 -0.85 -5.9 -1.15 -6.15 -1.45 -6.4 -1.75 -6.55 -2.35 -6.45 -3.35 -5.75 -4.15 -5.15 -5.25 -4.95 Q-5.6 -5.0 -5.75 -5.3 -6.1 -5.8 -6.1 -6.55 -6.15 -7.25 -5.8 -7.8 L-5.2 -8.45 Q-5.35 -7.95 -5.1 -7.65 L-4.35 -7.2 Q-3.75 -7.05 -3.2 -7.5 L-1.35 -8.55 -1.05 -8.55 -0.45 -8.3 0.0 -8.05 0.35 -8.15 0.9 -8.65 2.1 -9.5 2.15 -9.5 M3.65 -4.15 L4.8 -4.15 4.9 -4.1 Q5.6 -3.95 5.65 -3.2 5.7 -2.35 4.6 -2.0 L4.5 -1.9 4.5 -1.65 5.5 -0.55 Q6.3 0.6 6.0 1.75 L5.4 -0.1 4.55 -1.2 4.5 -1.2 4.3 -1.15 4.35 -1.0 4.6 -0.7 5.15 0.05 5.65 1.2 5.95 2.1 5.8 2.4 5.1 0.55 4.4 -0.2 4.35 -0.25 4.2 -0.1 4.3 0.2 4.85 0.75 5.7 2.6 Q5.6 2.75 5.65 2.9 L5.2 2.65 5.25 2.85 Q6.0 3.7 5.35 4.65 4.7 5.55 3.65 5.3 L3.45 5.3 Q1.95 7.05 0.1 7.8 L-0.1 7.9 0.05 8.0 1.35 7.8 Q1.1 8.65 -0.25 9.15 L-2.55 9.4 -3.25 9.1 -3.2 9.1 -2.35 9.1 -1.75 8.95 -1.85 8.9 -2.1 8.9 -2.65 8.8 Q-3.65 8.6 -4.85 7.75 -6.9 6.25 -7.5 3.5 -8.0 0.85 -6.95 -1.6 -6.3 -3.15 -5.0 -4.55 L-3.9 -4.85 -3.15 -5.5 -2.2 -6.15 -1.9 -6.15 -1.15 -5.65 -0.7 -5.5 0.45 -5.6 1.1 -5.6 Q1.95 -5.45 2.45 -4.5 L2.95 -4.1 3.65 -4.15 M0.8 -3.25 L0.6 -2.95 0.8 -2.8 1.25 -2.5 1.7 -2.1 2.05 -1.85 Q2.2 -2.15 1.8 -2.8 L1.35 -3.45 1.2 -3.55 1.0 -3.45 0.8 -3.25 M0.8 -1.0 L0.55 -1.35 0.15 -1.15 -0.1 -0.6 -0.1 0.05 0.15 0.35 0.55 0.2 0.8 -0.4 0.8 -1.0 M4.2 0.75 Q4.05 0.75 4.0 0.85 L4.05 1.05 4.5 1.5 4.75 1.95 4.95 2.25 5.0 2.2 4.95 1.8 4.75 1.35 4.2 0.75 M3.85 1.8 L3.85 2.0 4.0 2.15 4.15 2.45 4.25 2.65 4.4 2.45 4.3 2.05 4.05 1.75 4.0 1.7 3.85 1.8 M0.5 3.85 L0.4 3.45 -0.65 2.3 -0.75 2.25 -0.8 2.4 -0.75 2.8 Q-0.7 2.9 -0.8 3.0 L-1.05 3.1 -3.7 3.3 -4.05 3.25 -5.3 2.9 -5.95 2.6 -6.15 2.25 -6.1 2.1 -6.1 1.95 -6.25 2.0 -6.8 2.45 -6.9 2.65 -6.9 2.9 -6.55 3.8 -6.5 3.9 -6.4 3.8 -6.4 3.7 -6.2 3.5 -6.1 3.55 -5.4 4.15 Q-4.6 4.8 -3.8 5.0 L-1.65 4.65 -0.4 4.2 -0.3 4.2 Q-0.1 4.2 -0.05 4.35 L-0.15 4.95 -0.1 5.0 0.0 4.95 0.5 3.85 M-5.45 -4.65 L-6.45 -3.45 -6.65 -4.35 -6.5 -5.05 -6.15 -5.3 -5.95 -5.15 -5.45 -4.65 M-5.4 -1.0 L-5.1 -0.7 Q-4.9 -0.65 -4.75 -0.85 L-4.45 -1.4 -4.45 -2.05 -4.7 -2.35 -4.75 -2.35 -5.1 -2.2 -5.35 -1.65 -5.4 -1.0 M-4.95 -3.7 L-4.9 -3.7 -3.9 -3.55 -3.7 -3.6 -3.55 -3.85 -3.55 -4.05 -3.7 -4.3 -3.85 -4.25 -4.95 -3.9 -5.0 -3.8 -4.95 -3.7 M-2.25 -1.65 L-3.0 -0.75 -4.25 0.35 -4.35 0.75 -3.95 1.7 -3.65 1.9 -3.35 1.9 -3.2 1.8 -3.2 1.65 -3.55 0.95 -3.55 0.75 -3.5 0.55 -2.75 -0.35 -2.0 -1.5 -2.0 -1.8 -2.05 -1.8 -2.25 -1.65 M-4.7 4.15 L-6.1 3.35 -6.35 3.0 -6.05 2.8 -6.05 2.85 -4.0 3.5 -3.65 3.55 -0.95 3.4 -0.65 3.4 -0.4 3.55 -0.35 3.85 -0.6 4.0 -2.65 4.5 -3.95 4.4 -4.7 4.15 M-4.85 5.3 L-4.8 5.4 -4.4 5.7 -4.1 5.8 -3.65 5.85 -3.45 5.75 -3.4 5.6 -3.6 5.35 -3.65 5.35 -4.75 5.25 -4.85 5.3" fill="#ffffff" fill-rule="evenodd" stroke="none"/>
  </g>
</svg>
