<?xml version="1.0" encoding="UTF-8" standalone="no"?>
<svg xmlns:xlink="http://www.w3.org/1999/xlink" height="21.054px" width="20.988px" xmlns="http://www.w3.org/2000/svg">
  <g transform="matrix(1, 0, 0, 1, 10.49, 10.53)">
    <path d="M4.36 -2.44 L6.63 -2.84 10.49 0.96 9.5 1.91 7.89 0.33 6.5 1.78 8.05 3.33 5.71 5.68 5.64 5.81 3.3 8.18 1.68 6.57 0.23 7.99 1.85 9.6 0.86 10.53 -2.94 6.73 -2.54 4.32 Q-3.99 4.06 -5.41 3.33 L-8.15 1.35 Q-10.39 -0.96 -10.49 -4.62 -10.56 -7.23 -9.7 -9.67 -7.23 -10.66 -4.59 -10.53 -0.99 -10.39 1.29 -8.12 2.54 -6.86 3.33 -5.38 4.09 -3.93 4.36 -2.44" fill="#ffffff" fill-rule="evenodd" stroke="none"/>
  </g>
</svg>
