<?xml version="1.0" encoding="UTF-8" standalone="no"?>
<svg xmlns:xlink="http://www.w3.org/1999/xlink" height="20.15px" width="20.1175px" xmlns="http://www.w3.org/2000/svg">
  <g transform="matrix(1, 0, 0, 1, 10.47, 9.69)">
    <path d="M1.23 2.7 Q2.31 1.59 2.47 0.26 2.7 -1.1 1.89 -1.92 1.07 -2.73 -0.29 -2.5 -1.62 -2.31 -2.73 -1.27 -3.8 -0.19 -3.96 1.17 -4.16 2.5 -3.35 3.32 -2.53 4.13 -1.2 3.93 0.16 3.77 1.23 2.7 M1.63 0.26 L1.5 0.85 1.3 1.27 0.65 2.11 Q-0.19 2.96 -1.2 3.09 -2.14 3.22 -2.7 2.67 -3.25 2.11 -3.12 1.17 -2.99 0.16 -2.14 -0.68 -1.33 -1.49 -0.29 -1.66 0.65 -1.79 1.2 -1.23 1.79 -0.68 1.63 0.26 M9.04 -9.33 Q9.56 -9.75 9.62 -9.65 L9.26 -9.07 8.32 -7.8 8.13 -7.54 Q8.48 -7.22 8.55 -6.6 L8.52 -5.91 8.13 -5.46 Q7.83 -5.3 7.25 -4.87 L6.7 -4.42 6.11 -3.87 5.4 -2.99 4.06 -0.39 2.11 3.15 Q1.4 4.26 0.29 5.4 L-1.69 7.05 -1.95 8.39 -4.03 10.47 -5.43 9.07 -5.91 8.9 -7.15 8.13 -8.12 9.1 -9.13 8.09 -8.16 7.12 -8.94 5.88 -9.1 5.4 -10.46 4.0 -8.42 1.92 -7.09 1.69 -5.43 -0.32 Q-4.29 -1.43 -3.18 -2.14 -2.21 -2.79 0.36 -4.1 L2.96 -5.43 4.42 -6.73 4.84 -7.28 5.43 -8.16 5.88 -8.55 6.57 -8.58 Q7.18 -8.51 7.54 -8.16 L7.8 -8.35 9.04 -9.33" fill="#ffffff" fill-rule="evenodd" stroke="none"/>
  </g>
</svg>
