?xml version="1.0" encoding="UTF-8" standalone="no"?>
<svg xmlns:xlink="http://www.w3.org/1999/xlink" height="16.485px" width="21.0px" xmlns="http://www.w3.org/2000/svg">
  <g transform="matrix(1, 0, 0, 1, 10.01, 8.23)">
    <path d="M-1.61 3.88 L-1.61 5.39 -5.98 5.39 -5.98 3.88 -1.61 3.88 M-5.98 2.55 L-5.98 1.09 -1.61 1.09 -1.61 2.55 -5.98 2.55 M-5.98 -4.58 L-1.61 -4.58 -1.61 -3.08 -5.98 -3.08 -5.98 -4.58 M-5.98 -0.24 L-5.98 -1.75 -1.61 -1.75 -1.61 -0.24 -5.98 -0.24 M0.0 -6.37 Q-1.01 -6.93 -2.73 -6.93 -3.64 -6.93 -4.76 -6.33 -5.67 -5.81 -6.3 -5.84 L-8.12 -6.02 -8.12 6.96 0.0 6.96 0.0 -6.37 M2.84 5.39 L2.84 3.88 7.21 3.88 7.21 5.39 2.84 5.39 M7.21 1.09 L7.21 2.55 2.84 2.55 2.84 1.09 7.21 1.09 M2.84 -4.58 L7.21 -4.58 7.21 0.03 2.84 0.03 2.84 -4.58 M7.28 -5.84 Q6.61 -5.81 5.74 -6.33 4.55 -6.93 3.68 -6.93 1.96 -6.93 0.95 -6.37 L0.95 6.96 9.1 6.96 9.1 -6.02 7.28 -5.84 M0.49 -7.49 Q1.65 -8.22 4.03 -8.22 5.28 -8.22 6.76 -7.45 7.59 -7.03 7.94 -7.07 L8.01 -7.07 10.33 -7.38 10.78 -7.31 10.99 -6.93 10.99 7.77 Q10.99 8.26 10.47 8.26 L-9.52 8.26 Q-10.01 8.26 -10.01 7.77 L-10.01 -6.93 -9.8 -7.31 -9.34 -7.38 -7.07 -7.07 -7.0 -7.07 Q-6.58 -7.03 -5.81 -7.45 -4.34 -8.22 -3.04 -8.22 -0.66 -8.22 0.49 -7.49" fill="#ffffff" fill-rule="evenodd" stroke="none"/>
  </g>
</svg>
