<?xml version="1.0" encoding="UTF-8" standalone="no"?>
<svg xmlns:xlink="http://www.w3.org/1999/xlink" height="13.6825px" width="19.5px" xmlns="http://www.w3.org/2000/svg">
  <g transform="matrix(1, 0, 0, 1, 9.75, 6.83)">
    <path d="M8.55 -6.5 L9.65 -2.99 9.62 -2.7 9.46 -2.47 7.8 -1.23 7.64 -1.01 7.64 -0.68 9.75 5.56 9.72 5.82 9.52 5.98 4.52 6.86 4.22 6.79 4.06 6.57 2.67 1.59 Q2.47 0.81 2.15 0.88 L0.07 1.14 Q-2.05 1.14 -3.05 -0.32 -3.71 -1.2 -3.8 -2.44 -3.8 -2.7 -4.55 -2.7 L-8.61 -2.73 -8.87 -2.79 -8.94 -3.05 -8.94 -4.03 -9.07 -4.26 -9.33 -4.39 -9.39 -4.39 -9.65 -4.45 -9.75 -4.71 -9.75 -6.47 -9.65 -6.73 -9.39 -6.82 8.09 -6.82 8.39 -6.73 8.55 -6.5 M1.76 -0.03 Q2.08 -0.13 2.02 -0.62 L1.56 -2.37 1.37 -2.6 1.07 -2.73 0.78 -2.73 Q0.98 -1.36 0.49 -0.62 L-0.06 -0.13 -0.59 -0.19 Q-0.45 -0.32 -0.39 -0.55 -0.16 -0.97 -0.19 -1.43 -0.23 -1.92 -0.88 -2.73 L-2.11 -2.73 Q-2.63 -2.73 -2.63 -2.37 -2.57 -1.01 -1.85 -0.29 -1.23 0.33 -0.29 0.33 0.88 0.33 1.76 -0.03" fill="#ffffff" fill-rule="evenodd" stroke="none"/>
  </g>
</svg>
